HIERARCHY
ROOT Pelvis
{
	OFFSET -0.217368 -24.078917 2.858379
	CHANNELS 6 Xposition Yposition Zposition Zrotation Yrotation Xrotation 
	JOINT Left_hip
	{
		OFFSET 5.858135 -8.228005 -1.766408
		CHANNELS 3 Zrotation Yrotation Xrotation
		JOINT Left_knee
		{
			OFFSET 4.345143 -38.646942 0.803700
			CHANNELS 3 Zrotation Yrotation Xrotation
			JOINT Left_ankle
			{
				OFFSET -1.479033 -42.687447 -3.742800
				CHANNELS 3 Zrotation Yrotation Xrotation
				JOINT Left_foot
				{
					OFFSET 4.105436 -6.028605 12.204244
					CHANNELS 3 Zrotation Yrotation Xrotation
					End Site
					{
						OFFSET 0.000000 0.000000 0.000000
					}
				}
			}
		}
	}
	JOINT Right_hip
	{
		OFFSET -6.030973 -9.051328 -1.354253
		CHANNELS 3 Zrotation Yrotation Xrotation
		JOINT Right_knee
		{
			OFFSET -4.325663 -38.368790 -0.484304
			CHANNELS 3 Zrotation Yrotation Xrotation
			JOINT Right_ankle
			{
				OFFSET 1.905555 -42.004566 -3.456167
				CHANNELS 3 Zrotation Yrotation Xrotation
				JOINT Right_foot
				{
					OFFSET -3.483987 -6.210554 13.032330
					CHANNELS 3 Zrotation Yrotation Xrotation
					End Site
					{
						OFFSET 0.000000 0.000000 0.000000
					}
				}
			}
		}
	}
	JOINT Spine1
	{
		OFFSET 0.443945 12.440353 -3.838522
		CHANNELS 3 Zrotation Yrotation Xrotation
		JOINT Spine2
		{
			OFFSET 0.448844 13.795640 2.682033
			CHANNELS 3 Zrotation Yrotation Xrotation
			JOINT Spine3
			{
				OFFSET -0.226460 5.603239 0.285504
				CHANNELS 3 Zrotation Yrotation Xrotation
				JOINT Neck
				{
					OFFSET -1.339018 21.163553 -3.346758
					CHANNELS 3 Zrotation Yrotation Xrotation
					JOINT Head
					{
						OFFSET 1.011321 8.893734 5.040987
						CHANNELS 3 Zrotation Yrotation Xrotation
						End Site
						{
							OFFSET 0.000000 0.000000 0.000000
						}
					}
				}
				JOINT Left_collar
				{
					OFFSET 7.170247 11.399971 -1.889817
					CHANNELS 3 Zrotation Yrotation Xrotation
					JOINT Left_shoulder
					{
						OFFSET 12.292140 4.520507 -1.904600
						CHANNELS 3 Zrotation Yrotation Xrotation
						JOINT Left_elbow
						{
							OFFSET 25.533188 -1.564902 -2.294648
							CHANNELS 3 Zrotation Yrotation Xrotation
							JOINT Left_wrist
							{
								OFFSET 26.570929 1.269810 -0.737473
								CHANNELS 3 Zrotation Yrotation Xrotation
								JOINT Left_palm
								{
									OFFSET 8.669054 -1.063602 -1.559429
									CHANNELS 3 Zrotation Yrotation Xrotation
									End Site
									{
										OFFSET 0.000000 0.000000 0.000000
									}
								}
							}
						}
					}
				}
				JOINT Right_collar
				{
					OFFSET -8.295364 11.247234 -2.370738
					CHANNELS 3 Zrotation Yrotation Xrotation
					JOINT Right_shoulder
					{
						OFFSET -11.322830 4.685326 -0.847207
						CHANNELS 3 Zrotation Yrotation Xrotation
						JOINT Right_elbow
						{
							OFFSET -26.012751 -1.436928 -3.126872
							CHANNELS 3 Zrotation Yrotation Xrotation
							JOINT Right_wrist
							{
								OFFSET -26.910841 0.679372 -0.602677
								CHANNELS 3 Zrotation Yrotation Xrotation
								JOINT Right_palm
								{
									OFFSET -8.875370 -0.865157 -1.010708
									CHANNELS 3 Zrotation Yrotation Xrotation
									End Site
									{
										OFFSET 0.000000 0.000000 0.000000
									}
								}
							}
						}
					}
				}
			}
		}
	}
}
MOTION
Frames: 13
Frame Time: 0.016667
-0.217368 72.363991 2.858379 0.423790 -6.141126 -1.942144 1.859400 0.437326 6.112013 -3.728114 0.410632 -1.300996 4.062794 11.279905 12.385857 0.000000 0.000000 0.000000 -3.915034 -0.207786 4.539252 4.228730 -0.451652 -1.347724 -2.325376 -9.091831 10.651228 0.000000 0.000000 0.000000 5.713143 -0.597231 6.058113 -5.208731 1.903733 -23.419109 -1.401535 8.581526 26.726370 12.575504 -6.107112 -16.696269 0.000000 0.000000 0.000000 -22.588300 -6.500774 1.339665 -46.257477 -3.791057 -3.686023 -8.196035 -24.328646 2.631354 0.000000 0.000000 0.000000 0.000000 0.000000 0.000000 33.450632 -4.285582 -6.657454 47.220469 1.799935 -3.456863 6.381059 24.097987 1.983099 0.000000 0.000000 0.000000 0.000000 0.000000 0.000000 
-0.221788 72.313263 2.851657 0.812471 -6.444642 -2.065573 1.542160 0.506163 6.725653 -4.219566 0.457042 -1.897065 4.630800 12.265289 12.960664 0.000000 0.000000 0.000000 -4.393885 -0.206277 5.003470 4.292459 -0.458747 -1.972890 -2.150179 -8.926328 11.348488 0.000000 0.000000 0.000000 5.443150 -0.575557 6.001123 -5.237788 1.914452 -23.272981 -1.414784 8.788689 26.841410 13.056393 -6.177075 -17.675073 0.000000 0.000000 0.000000 -22.127326 -7.060912 1.680738 -46.229812 -3.713657 -3.712193 -9.031134 -25.273157 2.924088 0.000000 0.000000 0.000000 0.000000 0.000000 0.000000 33.800584 -4.361513 -6.775367 47.102940 1.725830 -3.475299 6.589447 24.339950 2.046036 0.000000 0.000000 0.000000 0.000000 0.000000 0.000000 
-0.221778 72.254440 2.856534 0.686281 -6.353587 -1.992526 1.681799 0.456305 6.207015 -4.003468 0.437541 -1.408906 4.668051 12.251777 12.518223 0.000000 0.000000 0.000000 -4.345483 -0.199992 4.850125 4.009829 -0.432717 -1.741406 -2.018148 -8.806329 11.877734 0.000000 0.000000 0.000000 5.232752 -0.549907 5.853621 -5.224350 1.927588 -22.585434 -0.918645 8.630211 26.049117 12.345943 -5.688999 -18.045363 0.000000 0.000000 0.000000 -22.758502 -7.414835 1.864951 -46.017336 -3.506288 -3.770252 -9.040541 -25.531149 2.957540 0.000000 0.000000 0.000000 0.000000 0.000000 0.000000 33.594816 -3.514296 -6.140231 47.090512 1.627468 -3.510954 6.562335 23.748786 1.985836 0.000000 0.000000 0.000000 0.000000 0.000000 0.000000 
-0.217776 72.287064 2.863629 0.966183 -6.093542 -2.040291 1.459966 0.492651 6.480453 -4.042870 0.440836 -1.756731 4.414184 11.936826 13.004167 0.000000 0.000000 0.000000 -4.700326 -0.218959 5.566084 3.992413 -0.433285 -2.230409 -2.205390 -9.234576 12.196130 0.000000 0.000000 0.000000 5.201676 -0.606988 6.534230 -5.319040 1.926444 -23.606078 -1.083503 8.993226 26.280139 13.515173 -6.175416 -18.882301 0.000000 0.000000 0.000000 -22.852154 -7.975254 2.189745 -45.452474 -3.206832 -3.829807 -9.967086 -25.896325 3.213620 0.000000 0.000000 0.000000 0.000000 0.000000 0.000000 35.027422 -4.053884 -6.781582 46.034742 0.784144 -3.732085 7.517255 24.015055 2.195073 0.000000 0.000000 0.000000 0.000000 0.000000 0.000000 
-0.212921 72.321129 2.866379 0.796373 -6.015173 -1.730987 1.484889 0.468632 6.197132 -3.561747 0.396017 -1.939875 3.959149 11.205362 12.868535 0.000000 0.000000 0.000000 -4.703120 -0.199395 5.238096 4.154323 -0.447186 -2.202709 -2.092800 -9.095946 12.496006 0.000000 0.000000 0.000000 5.404841 -0.587793 6.166035 -5.251999 1.914779 -23.405896 -1.065003 8.972860 25.989430 12.893206 -5.795968 -19.014354 0.000000 0.000000 0.000000 -23.315320 -8.018822 2.204161 -45.341960 -2.853597 -3.946639 -10.468218 -26.363095 3.391374 0.000000 0.000000 0.000000 0.000000 0.000000 0.000000 35.142036 -3.833274 -6.642765 45.748222 0.478935 -3.816470 8.120755 24.293231 2.341702 0.000000 0.000000 0.000000 0.000000 0.000000 0.000000 
-0.208017 72.368942 2.869306 0.933258 -6.017158 -2.158668 1.179187 0.541969 6.848197 -3.404739 0.381875 -2.036162 3.891137 11.105411 12.902203 0.000000 0.000000 0.000000 -5.007074 -0.220186 5.979312 4.193136 -0.451662 -2.627551 -2.295333 -9.552681 12.848984 0.000000 0.000000 0.000000 5.378131 -0.633816 6.706918 -5.349480 1.937726 -23.455027 -1.143629 9.165316 25.885122 13.076618 -5.877686 -19.114702 0.000000 0.000000 0.000000 -23.494503 -8.070383 2.230430 -44.974429 -2.855791 -3.912302 -10.801387 -26.294085 3.459550 0.000000 0.000000 0.000000 0.000000 0.000000 0.000000 35.419640 -3.847325 -6.703381 45.381831 0.458929 -3.790517 8.506187 24.233556 2.410715 0.000000 0.000000 0.000000 0.000000 0.000000 0.000000 
-0.203249 72.383163 2.871487 0.964971 -6.059352 -2.221119 1.056937 0.555541 6.905610 -3.390083 0.380487 -2.025831 3.947376 11.164720 12.746993 0.000000 0.000000 0.000000 -5.180341 -0.220323 6.220413 4.358841 -0.465730 -2.915323 -2.307388 -9.609588 13.002363 0.000000 0.000000 0.000000 5.463657 -0.639295 6.703832 -5.444046 1.963745 -23.354665 -1.179235 9.279553 25.806784 12.918293 -5.795815 -19.081402 0.000000 0.000000 0.000000 -23.466782 -8.340083 2.390969 -44.787467 -2.773837 -3.924167 -11.048829 -26.487387 3.544377 0.000000 0.000000 0.000000 0.000000 0.000000 0.000000 35.172094 -3.603358 -6.481408 45.456548 0.464330 -3.795345 9.173057 24.401206 2.560980 0.000000 0.000000 0.000000 0.000000 0.000000 0.000000 
-0.204085 72.432808 2.875503 1.035182 -6.041141 -2.362215 1.199014 0.554582 7.020984 -3.376422 0.378512 -1.859126 3.861542 10.980535 12.480371 0.000000 0.000000 0.000000 -5.409682 -0.217718 6.508054 4.382460 -0.467907 -3.206104 -2.409306 -9.866890 13.321914 0.000000 0.000000 0.000000 5.252913 -0.629455 6.753538 -5.122439 1.881278 -23.465321 -1.241742 9.279361 25.757263 12.570505 -5.639581 -18.893941 0.000000 0.000000 0.000000 -23.549469 -8.011597 2.194250 -44.854026 -2.584167 -3.997275 -11.536916 -26.615235 3.677584 0.000000 0.000000 0.000000 0.000000 0.000000 0.000000 34.721951 -3.699296 -6.470457 45.464570 0.024845 -3.952322 9.600685 24.853581 2.700386 0.000000 0.000000 0.000000 0.000000 0.000000 0.000000 
-0.202637 72.503166 2.880882 1.084730 -6.083292 -2.297093 1.246678 0.534338 6.814124 -3.332348 0.373865 -1.745497 3.747356 10.732964 12.128104 0.000000 0.000000 0.000000 -5.647243 -0.202431 6.582193 4.515636 -0.478225 -3.403820 -2.328757 -9.777994 13.582308 0.000000 0.000000 0.000000 5.184711 -0.611862 6.603483 -4.886532 1.819606 -23.623660 -1.261483 9.347278 25.727639 12.055358 -5.328003 -18.999076 0.000000 0.000000 0.000000 -23.845386 -7.456025 1.855686 -44.612871 -2.305871 -4.072266 -11.875279 -26.853680 3.792989 0.000000 0.000000 0.000000 0.000000 0.000000 0.000000 34.523118 -3.910006 -6.586083 45.399593 -0.363659 -4.083963 9.999035 25.070877 2.808070 0.000000 0.000000 0.000000 0.000000 0.000000 0.000000 
-0.199239 72.594139 2.881217 1.087215 -5.971418 -2.598765 1.348288 0.542588 7.008690 -3.654353 0.403994 -1.622858 4.120535 11.326441 12.140220 0.000000 0.000000 0.000000 -5.747630 -0.210348 6.903250 4.760882 -0.496489 -3.567848 -2.581924 -10.377463 14.261728 0.000000 0.000000 0.000000 5.059560 -0.640036 7.030587 -4.814173 1.797276 -23.849025 -1.226971 9.347983 25.603936 12.095228 -5.383966 -18.834210 0.000000 0.000000 0.000000 -24.081074 -7.025694 1.590867 -44.089990 -2.090093 -4.096499 -12.627608 -26.902289 3.980205 0.000000 0.000000 0.000000 0.000000 0.000000 0.000000 34.569094 -4.239640 -6.830796 44.928976 -0.615649 -4.125924 10.605360 24.871019 2.905740 0.000000 0.000000 0.000000 0.000000 0.000000 0.000000 
-0.192839 72.648209 2.879743 1.084944 -5.742515 -2.775761 1.546493 0.551344 7.307144 -3.917265 0.429026 -1.712599 4.404425 11.763152 12.072334 0.000000 0.000000 0.000000 -5.857149 -0.215554 7.196520 4.952971 -0.509820 -3.815422 -2.763205 -10.765087 14.590775 0.000000 0.000000 0.000000 5.018012 -0.655809 7.250235 -4.812274 1.792806 -24.048703 -1.317186 9.283818 25.631880 12.236730 -5.500039 -18.657693 0.000000 0.000000 0.000000 -23.940118 -6.960033 1.556775 -43.847021 -1.948025 -4.121388 -12.916082 -26.886867 4.046857 0.000000 0.000000 0.000000 0.000000 0.000000 0.000000 34.474520 -4.501925 -7.000970 44.915089 -0.738679 -4.167547 10.901868 24.499904 2.916241 0.000000 0.000000 0.000000 0.000000 0.000000 0.000000 
-0.178837 72.695709 2.881918 1.089901 -6.028714 -3.066759 1.559160 0.583194 7.726943 -3.760458 0.414338 -1.862732 4.666314 12.164641 12.000827 0.000000 0.000000 0.000000 -6.061497 -0.218999 7.642676 5.109903 -0.520121 -4.012329 -2.782449 -10.867664 14.942079 0.000000 0.000000 0.000000 4.824438 -0.674619 7.642975 -4.711871 1.762376 -24.369133 -1.180853 9.473522 25.789049 12.458106 -5.753081 -18.046500 0.000000 0.000000 0.000000 -23.721276 -6.699866 1.410379 -43.803513 -1.972489 -4.108689 -13.053788 -26.672999 4.045645 0.000000 0.000000 0.000000 0.000000 0.000000 0.000000 34.412983 -4.762857 -7.175790 44.817363 -0.814988 -4.184219 10.989655 24.271798 2.903114 0.000000 0.000000 0.000000 0.000000 0.000000 0.000000 
-0.158481 72.762894 2.884509 1.133604 -6.346119 -3.279638 1.398578 0.621856 8.051189 -3.426338 0.383736 -2.005253 4.541086 11.974952 12.048800 0.000000 0.000000 0.000000 -6.210993 -0.215547 7.860986 5.175881 -0.524043 -4.136322 -2.811783 -11.005874 15.394966 0.000000 0.000000 0.000000 4.625921 -0.682270 7.920088 -4.440605 1.696277 -24.443815 -1.191327 9.557837 25.877629 12.276961 -5.707725 -17.764806 0.000000 0.000000 0.000000 -23.810576 -6.471192 1.270952 -43.829473 -1.775981 -4.178583 -12.980592 -26.467599 3.995590 0.000000 0.000000 0.000000 0.000000 0.000000 0.000000 34.323039 -4.684117 -7.102427 44.796775 -1.023216 -4.254656 10.935586 24.280875 2.893673 0.000000 0.000000 0.000000 0.000000 0.000000 0.000000 
